<svg id="Layer_1" data-name="Layer 1" xmlns="http://www.w3.org/2000/svg" viewBox="0 0 448 512"><defs><style>.cls-1{fill:#ebebeb;}</style></defs><title>bell-regular_grey</title><path class="cls-1" d="M439.39,362.29c-19.32-20.76-55.47-52-55.47-154.29,0-77.7-54.48-139.9-127.94-155.16V32a32,32,0,1,0-64,0V52.84C118.56,68.1,64.08,130.3,64.08,208c0,102.3-36.15,133.53-55.47,154.29A31.24,31.24,0,0,0,0,384c.11,16.4,13,32,32.1,32H415.9c19.12,0,32-15.6,32.1-32a31.23,31.23,0,0,0-8.61-21.71ZM67.53,368c21.22-28,44.42-74.33,44.53-159.42,0-.2-.06-.38-.06-.58a112,112,0,0,1,224,0c0,.2-.06.38-.06.58.11,85.1,23.31,131.46,44.53,159.42ZM224,512a64,64,0,0,0,64-64H160A64,64,0,0,0,224,512Z" transform="translate(0)"/></svg>