<svg id="Layer_1" data-name="Layer 1" xmlns="http://www.w3.org/2000/svg" viewBox="0 0 640.04 448.01"><defs><style>.cls-1{fill:#ebebeb;}</style></defs><title>box-open-solid_grey</title><path class="cls-1" d="M425.7,256a48.47,48.47,0,0,1-41.4-23.4L320,126,255.8,232.6a48.64,48.64,0,0,1-41.5,23.5,46,46,0,0,1-13.3-1.9L64,215V393a31.9,31.9,0,0,0,24.2,31l216.2,54.1a65,65,0,0,0,31,0L551.8,424A32.07,32.07,0,0,0,576,393V215L439,254.1A46,46,0,0,1,425.7,256ZM638.3,143.8,586.8,41a16.33,16.33,0,0,0-16.7-8.9L320,64l91.7,152.1a16.44,16.44,0,0,0,18.5,7.3l197.9-56.5a16.47,16.47,0,0,0,10.2-23.1ZM53.2,41,1.7,143.8a16.3,16.3,0,0,0,10.1,23l197.9,56.5a16.44,16.44,0,0,0,18.5-7.3L320,64,69.8,32.1A16.34,16.34,0,0,0,53.2,41Z" transform="translate(0.04 -31.96)"/></svg>