<svg id="Layer_1" data-name="Layer 1" xmlns="http://www.w3.org/2000/svg" viewBox="0 0 640.04 448.01"><defs><style>.cls-1{fill:#003049;}</style></defs><title>box-open-solid_blue</title><path class="cls-1" d="M425.74,224a48.47,48.47,0,0,1-41.4-23.4L320,94l-64.2,106.6a48.65,48.65,0,0,1-41.5,23.5,46.09,46.09,0,0,1-13.3-1.9L64,183V361a31.9,31.9,0,0,0,24.2,31l216.2,54.1a65,65,0,0,0,31,0L551.84,392A32.06,32.06,0,0,0,576,361V183l-137,39.1A46.09,46.09,0,0,1,425.74,224Zm212.6-112.2L586.84,9a16.33,16.33,0,0,0-16.7-8.9L320,32l91.7,152.1a16.43,16.43,0,0,0,18.5,7.3l197.9-56.5a16.45,16.45,0,0,0,10.2-23.1ZM53.24,9,1.74,111.84a16.28,16.28,0,0,0,10.1,23l197.9,56.5a16.43,16.43,0,0,0,18.5-7.3L320,32,69.84.14A16.34,16.34,0,0,0,53.24,9Z" transform="translate(0 -0.01)"/></svg>