<svg id="Layer_1" data-name="Layer 1" xmlns="http://www.w3.org/2000/svg" viewBox="0 0 448 512"><defs><style>.cls-1{fill:#ebebeb;}</style></defs><title>calendar-alt-regular</title><path class="cls-1" d="M148,288H108a12,12,0,0,1-12-12V236a12,12,0,0,1,12-12h40a12,12,0,0,1,12,12v40A12,12,0,0,1,148,288Zm108-12V236a12,12,0,0,0-12-12H204a12,12,0,0,0-12,12v40a12,12,0,0,0,12,12h40A12,12,0,0,0,256,276Zm96,0V236a12,12,0,0,0-12-12H300a12,12,0,0,0-12,12v40a12,12,0,0,0,12,12h40A12,12,0,0,0,352,276Zm-96,96V332a12,12,0,0,0-12-12H204a12,12,0,0,0-12,12v40a12,12,0,0,0,12,12h40A12,12,0,0,0,256,372Zm-96,0V332a12,12,0,0,0-12-12H108a12,12,0,0,0-12,12v40a12,12,0,0,0,12,12h40A12,12,0,0,0,160,372Zm192,0V332a12,12,0,0,0-12-12H300a12,12,0,0,0-12,12v40a12,12,0,0,0,12,12h40A12,12,0,0,0,352,372Zm96-260V464a48,48,0,0,1-48,48H48A48,48,0,0,1,0,464V112A48,48,0,0,1,48,64H96V12A12,12,0,0,1,108,0h40a12,12,0,0,1,12,12V64H288V12A12,12,0,0,1,300,0h40a12,12,0,0,1,12,12V64h48A48,48,0,0,1,448,112ZM400,458V160H48V458a6,6,0,0,0,6,6H394A6,6,0,0,0,400,458Z"/></svg>